<svg width="97" height="28" viewBox="0 0 97 28" fill="none" xmlns="http://www.w3.org/2000/svg">
<path d="M8.568 27.576C5.856 27.576 3.864 26.892 2.592 25.524C1.32 24.156 0.684 21.888 0.684 18.72C0.684 16.2 1.104 13.488 1.944 10.584C2.808 7.68 4.176 5.196 6.048 3.132C7.944 1.044 10.344 -2.14577e-06 13.248 -2.14577e-06C15.048 -2.14577e-06 16.5 0.395998 17.604 1.188C18.708 1.98 19.26 3.192 19.26 4.824C19.26 5.856 19.056 6.672 18.648 7.272C18.24 7.848 17.604 8.136 16.74 8.136C15.876 8.136 15.192 7.824 14.688 7.2C15.12 6.984 15.504 6.552 15.84 5.904C16.176 5.256 16.344 4.584 16.344 3.888C16.344 3.24 16.164 2.712 15.804 2.304C15.468 1.896 14.916 1.692 14.148 1.692C12.876 1.692 11.664 2.568 10.512 4.32C9.36 6.048 8.424 8.232 7.704 10.872C7.008 13.512 6.66 16.056 6.66 18.504C6.66 20.328 6.972 21.72 7.596 22.68C8.22 23.64 9.348 24.12 10.98 24.12C12.396 24.12 13.704 23.808 14.904 23.184C16.104 22.56 17.136 21.672 18 20.52L18.828 20.88C18.228 22.392 17.34 23.652 16.164 24.66C14.988 25.668 13.728 26.412 12.384 26.892C11.04 27.348 9.768 27.576 8.568 27.576ZM30.8905 27.216C29.4265 27.216 28.3465 26.832 27.6505 26.064C26.9785 25.272 26.6425 24.3 26.6425 23.148C26.6425 22.644 26.7025 22.08 26.8225 21.456C26.9425 20.808 27.0625 20.184 27.1825 19.584C27.3265 18.984 27.4225 18.6 27.4705 18.432C27.6625 17.592 27.8425 16.764 28.0105 15.948C28.1785 15.132 28.2625 14.472 28.2625 13.968C28.2625 12.744 27.8305 12.132 26.9665 12.132C26.3425 12.132 25.7905 12.444 25.3105 13.068C24.8305 13.668 24.4465 14.46 24.1585 15.444L21.7105 27H16.5265L21.7465 2.52L27.0745 1.8L25.1305 10.872C26.3305 9.528 27.7345 8.856 29.3425 8.856C30.5665 8.856 31.5385 9.192 32.2585 9.864C32.9785 10.536 33.3385 11.556 33.3385 12.924C33.3385 13.62 33.2545 14.4 33.0865 15.264C32.9185 16.104 32.6785 17.136 32.3665 18.36C32.1745 19.104 31.9945 19.836 31.8265 20.556C31.6825 21.252 31.6105 21.804 31.6105 22.212C31.6105 22.692 31.7185 23.064 31.9345 23.328C32.1505 23.592 32.5225 23.724 33.0505 23.724C33.7705 23.724 34.3465 23.472 34.7785 22.968C35.2105 22.44 35.6425 21.636 36.0745 20.556H37.5865C36.6985 23.196 35.6665 24.972 34.4905 25.884C33.3385 26.772 32.1385 27.216 30.8905 27.216ZM42.0823 7.056C41.2903 7.056 40.6183 6.78 40.0663 6.228C39.5143 5.676 39.2383 5.004 39.2383 4.212C39.2383 3.42 39.5143 2.748 40.0663 2.196C40.6183 1.62 41.2903 1.332 42.0823 1.332C42.8743 1.332 43.5463 1.62 44.0983 2.196C44.6743 2.748 44.9623 3.42 44.9623 4.212C44.9623 5.004 44.6743 5.676 44.0983 6.228C43.5463 6.78 42.8743 7.056 42.0823 7.056ZM39.6343 27.216C38.4823 27.216 37.5463 26.856 36.8263 26.136C36.1303 25.416 35.7823 24.336 35.7823 22.896C35.7823 22.296 35.8783 21.516 36.0703 20.556L38.5183 9H43.7023L41.1103 21.24C41.0143 21.6 40.9663 21.984 40.9663 22.392C40.9663 22.872 41.0743 23.22 41.2903 23.436C41.5303 23.628 41.9143 23.724 42.4423 23.724C43.1383 23.724 43.7863 23.436 44.3863 22.86C44.9863 22.26 45.4183 21.492 45.6823 20.556H47.1943C46.3063 23.148 45.1663 24.912 43.7743 25.848C42.3823 26.76 41.0023 27.216 39.6343 27.216ZM49.232 27.216C48.08 27.216 47.144 26.856 46.424 26.136C45.728 25.416 45.38 24.336 45.38 22.896C45.38 22.296 45.476 21.516 45.668 20.556L49.52 2.52L54.848 1.8L50.708 21.24C50.612 21.6 50.564 21.984 50.564 22.392C50.564 22.872 50.672 23.22 50.888 23.436C51.128 23.628 51.512 23.724 52.04 23.724C52.736 23.724 53.384 23.436 53.984 22.86C54.584 22.26 55.016 21.492 55.28 20.556H56.792C55.904 23.148 54.764 24.912 53.372 25.848C51.98 26.76 50.6 27.216 49.232 27.216ZM58.8296 27.216C57.6776 27.216 56.7416 26.856 56.0216 26.136C55.3256 25.416 54.9776 24.336 54.9776 22.896C54.9776 22.296 55.0736 21.516 55.2656 20.556L59.1176 2.52L64.4456 1.8L60.3056 21.24C60.2096 21.6 60.1616 21.984 60.1616 22.392C60.1616 22.872 60.2696 23.22 60.4856 23.436C60.7256 23.628 61.1096 23.724 61.6376 23.724C62.3336 23.724 62.9816 23.436 63.5816 22.86C64.1816 22.26 64.6136 21.492 64.8776 20.556H66.3896C65.5016 23.148 64.3616 24.912 62.9696 25.848C61.5776 26.76 60.1976 27.216 58.8296 27.216ZM69.1833 27.216C67.8153 27.216 66.6753 26.748 65.7633 25.812C64.8513 24.876 64.3953 23.412 64.3953 21.42C64.3953 19.644 64.7433 17.784 65.4393 15.84C66.1593 13.872 67.2153 12.216 68.6073 10.872C70.0233 9.504 71.7033 8.82 73.6473 8.82C74.6313 8.82 75.3633 8.988 75.8433 9.324C76.3233 9.66 76.5633 10.104 76.5633 10.656V10.908L76.9593 9H82.1433L79.5513 21.24C79.4793 21.552 79.4433 21.852 79.4433 22.14C79.4433 23.196 79.9593 23.724 80.9913 23.724C81.9033 23.724 82.8873 23.4 83.9433 22.752C85.0233 22.104 85.9593 21.3 86.7513 20.34L84.6633 9H89.7393L91.1433 16.776C92.2233 15.624 93.0633 14.544 93.6633 13.536C94.2633 12.528 94.5633 11.7 94.5633 11.052C94.5633 10.836 94.5513 10.692 94.5273 10.62C94.1913 10.668 93.9873 10.692 93.9153 10.692C93.3153 10.692 92.8833 10.512 92.6193 10.152C92.3553 9.768 92.2233 9.276 92.2233 8.676C92.2233 8.148 92.4153 7.74 92.7993 7.452C93.1833 7.14 93.6633 6.984 94.2393 6.984C95.0073 6.984 95.6073 7.284 96.0393 7.884C96.4713 8.484 96.6873 9.252 96.6873 10.188C96.6873 11.34 96.2793 12.588 95.4633 13.932C94.6713 15.252 93.3633 16.86 91.5393 18.756L91.8633 20.556C92.0793 21.756 92.3193 22.584 92.5833 23.04C92.8713 23.496 93.3873 23.724 94.1313 23.724C94.5633 23.724 94.9473 23.652 95.2833 23.508C95.1873 24.708 94.7553 25.632 93.9873 26.28C93.2433 26.904 92.3553 27.216 91.3233 27.216C90.1953 27.216 89.3193 26.844 88.6953 26.1C88.0953 25.356 87.5793 24.12 87.1473 22.392C84.6033 25.608 81.7833 27.216 78.6873 27.216C77.6553 27.216 76.7553 26.916 75.9873 26.316C75.2433 25.716 74.7753 24.888 74.5833 23.832C73.0953 26.088 71.2953 27.216 69.1833 27.216ZM71.5233 23.724C72.1233 23.724 72.7113 23.448 73.2873 22.896C73.8873 22.32 74.2953 21.54 74.5113 20.556L76.2393 12.42C76.2393 12.108 76.1193 11.808 75.8793 11.52C75.6393 11.208 75.2673 11.052 74.7633 11.052C73.8033 11.052 72.9393 11.616 72.1713 12.744C71.4033 13.848 70.8033 15.192 70.3713 16.776C69.9393 18.336 69.7233 19.716 69.7233 20.916C69.7233 22.116 69.8913 22.884 70.2273 23.22C70.5873 23.556 71.0193 23.724 71.5233 23.724Z" fill="url(#paint0_linear_9_1016)"/>
<defs>
<linearGradient id="paint0_linear_9_1016" x1="4.37064" y1="5.0625" x2="96.9853" y2="21.5981" gradientUnits="userSpaceOnUse">
<stop stop-color="#A5D44C"/>
<stop offset="0.333333" stop-color="#20C2C2"/>
<stop offset="0.65625" stop-color="#FF1361"/>
<stop offset="1" stop-color="#FFF800"/>
</linearGradient>
</defs>
</svg>
